<svg width="9" height="16" viewBox="0 0 9 16" fill="none" xmlns="http://www.w3.org/2000/svg">
<path d="M0.0297852 8.00684C0.0297852 8.34717 0.154297 8.62939 0.428223 8.89502L6.81982 15.1455C7.02734 15.3613 7.29297 15.4692 7.6001 15.4692C8.22266 15.4692 8.7207 14.9712 8.7207 14.3486C8.7207 14.0332 8.59619 13.7593 8.37207 13.5352L2.69434 7.99854L8.37207 2.47852C8.59619 2.25439 8.7207 1.97217 8.7207 1.66504C8.7207 1.04248 8.22266 0.552734 7.6001 0.552734C7.28467 0.552734 7.02734 0.652344 6.81982 0.868164L0.428223 7.11865C0.154297 7.38428 0.0380859 7.6665 0.0297852 8.00684Z" fill="white"/>
</svg>
