<svg width="19" height="27" viewBox="0 0 19 27" fill="none" xmlns="http://www.w3.org/2000/svg">
<path d="M10.5948 12.6778C10.5948 15.4906 10.6402 18.3034 10.5948 21.1139C10.5131 24.9945 7.49733 27.5669 3.89838 26.892C1.34326 26.4159 -0.0568305 24.523 0.0135146 21.6386C0.0679754 19.4105 1.64734 17.6932 4.04361 17.4159C5.34613 17.2657 6.66227 17.2356 8.05555 17.1848C8.25344 17.1759 8.44038 17.0898 8.57767 16.9444C8.71496 16.799 8.79207 16.6053 8.79304 16.4036V15.8743C8.79304 12.0122 8.81347 8.15011 8.79304 4.29032V2.4159C8.79304 1.85427 8.69093 1.21636 8.90197 0.684777C9.09031 0.222527 9.50784 -0.181942 10.0161 0.102341C10.1619 0.176259 10.2921 0.278303 10.3996 0.402804C10.5047 0.578025 10.559 0.77994 10.5562 0.98524C10.5948 1.26259 10.6402 1.53763 10.7037 1.81035C10.7672 2.08308 10.8535 2.32345 10.9306 2.58C10.9349 2.59878 10.9402 2.61731 10.9465 2.63547C11.1906 3.30315 11.5178 3.9362 11.92 4.51914C12.3315 5.10583 12.7916 5.6556 13.2951 6.16243C13.808 6.68246 14.3503 7.17014 14.8995 7.64625L15.1014 7.8196C18.3872 10.6439 19.844 15.3612 18.5619 19.4983C18.4684 19.715 18.3094 19.8955 18.1081 20.0137C17.9408 20.1828 17.7313 20.3019 17.5022 20.3581C16.8215 20.4205 16.8691 19.0338 16.8714 18.6316C16.875 18.2505 16.8339 17.8703 16.7489 17.4991C16.5762 16.7758 16.2084 16.1161 15.6869 15.5946C14.4547 14.372 13.1544 13.2372 11.8701 12.0815C11.759 11.9827 11.6224 11.9185 11.4765 11.8966C11.3306 11.8746 11.1816 11.8958 11.0472 11.9577C10.9128 12.0195 10.7987 12.1194 10.7185 12.2455C10.6383 12.3715 10.5954 12.5184 10.5948 12.6686V12.6778Z" fill="white"/>
</svg>
