<svg width="36" height="36" viewBox="0 0 36 36" fill="none" xmlns="http://www.w3.org/2000/svg">
<path d="M22.1304 8.86305C21.5692 8.31001 20.8128 8 20.0249 8H15.8694C15.0169 8 14.2048 8.36262 13.6357 8.99728L12.4362 10.3351C12.0568 10.7583 11.5154 11 10.9471 11H10C7.79086 11 6 12.7908 6 15V24C6 26.2092 7.79086 28 10 28H26C28.2091 28 30 26.2092 30 24V15C30 12.7908 28.2091 11 26 11H25.119C24.5937 11 24.0895 10.7933 23.7153 10.4246L22.1304 8.86305Z" fill="#F6F6F6"/>
<circle cx="18" cy="19" r="5" fill="#F6F6F6" stroke="#A30000" stroke-width="2"/>
</svg>
