<svg width="22" height="22" viewBox="0 0 22 22" fill="none" xmlns="http://www.w3.org/2000/svg">
<path d="M7.29155 14.8234C7.22848 14.8563 7.17552 14.9065 7.13853 14.9684C7.10154 15.0304 7.08197 15.1016 7.08201 15.1743V16.458C7.08201 16.458 7.11289 17.359 8.06703 16.8377L12.6719 14.1117C12.7291 14.0778 12.7768 14.0291 12.8101 13.9705C12.8434 13.9118 12.8613 13.8453 12.862 13.7774L12.8924 12.0042C12.8938 11.934 12.877 11.8647 12.8435 11.8035C12.8101 11.7423 12.7613 11.6915 12.7023 11.6562L9.06062 9.5003C9.00209 9.46514 8.95368 9.41469 8.92029 9.35408C8.88691 9.29347 8.86975 9.22486 8.87055 9.15522L8.8772 8.52071C8.87776 8.45185 8.89593 8.38434 8.92986 8.32494C8.9638 8.26555 9.01231 8.21634 9.07057 8.18225C9.12882 8.14815 9.19477 8.13037 9.26182 8.13066C9.32887 8.13096 9.39466 8.14933 9.45263 8.18393L14.5512 11.2208C14.5702 11.2322 14.5857 11.2488 14.5959 11.2689C14.6061 11.2889 14.6106 11.3115 14.6089 11.334C14.6072 11.3566 14.5992 11.3782 14.5861 11.3963C14.5729 11.4144 14.5551 11.4284 14.5346 11.4365L14.0171 11.6425C13.9443 11.6715 13.8818 11.7227 13.8381 11.7892C13.7944 11.8556 13.7714 11.9342 13.7724 12.0144L13.7838 12.9125C13.7847 12.9821 13.8035 13.0502 13.8384 13.1099C13.8732 13.1695 13.9229 13.2186 13.9822 13.2522C14.0415 13.2858 14.1085 13.3026 14.1762 13.301C14.2439 13.2994 14.31 13.2793 14.3678 13.2429L16.4742 11.9119C16.6901 11.7779 16.8648 11.584 16.9783 11.3526C17.1475 11.0012 17.1912 10.5131 16.4376 10.1856C16.4232 10.1796 16.4092 10.1726 16.3958 10.1646L7.81995 5.08216C7.81995 5.08216 7.24975 4.72683 7.08867 5.4941C7.08353 5.51979 7.08097 5.54597 7.08106 5.5722V11.0778C7.08115 11.1585 7.10536 11.2371 7.15039 11.3032C7.19543 11.3693 7.25914 11.4196 7.3329 11.4473L10.7541 12.7295C10.7814 12.7385 10.8055 12.7558 10.8231 12.7791C10.8407 12.8023 10.8511 12.8305 10.8528 12.86C10.8545 12.8894 10.8476 12.9187 10.8329 12.944C10.8182 12.9693 10.7963 12.9895 10.7703 13.0018L7.29155 14.8234Z" stroke="white" stroke-width="0.5" stroke-miterlimit="10"/>
<path d="M11.0811 21C16.6039 21 21.0811 16.5228 21.0811 11C21.0811 5.47715 16.6039 1 11.0811 1C5.55821 1 1.08105 5.47715 1.08105 11C1.08105 16.5228 5.55821 21 11.0811 21Z" stroke="white" stroke-miterlimit="10"/>
</svg>
