<svg width="14" height="20" viewBox="0 0 14 20" fill="none" xmlns="http://www.w3.org/2000/svg">
<path d="M13.134 13.622C13.134 14.4433 12.914 15.1987 12.474 15.888C12.034 16.5773 11.3813 17.1273 10.516 17.538C9.65067 17.9487 8.60933 18.154 7.392 18.154V19.914H6.446V18.11C4.84733 17.978 3.542 17.494 2.53 16.658C1.53267 15.822 0.982667 14.7073 0.88 13.314H4.884C4.928 13.7833 5.082 14.1793 5.346 14.502C5.62467 14.8247 5.99133 15.0447 6.446 15.162V11.664C6.19667 11.5907 6.03533 11.5393 5.962 11.51C4.89133 11.202 4.01133 10.894 3.322 10.586C2.64733 10.2633 2.06067 9.794 1.562 9.178C1.078 8.54733 0.836 7.71867 0.836 6.692C0.836 5.79733 1.078 5.01267 1.562 4.338C2.06067 3.66333 2.73533 3.15 3.586 2.798C4.43667 2.43133 5.39 2.23333 6.446 2.204V0.4H7.392V2.226C9.00533 2.32867 10.2887 2.79067 11.242 3.612C12.1953 4.41867 12.7307 5.48933 12.848 6.824H8.778C8.71933 6.384 8.57267 6.02467 8.338 5.746C8.10333 5.46733 7.788 5.27667 7.392 5.174V8.606L8.074 8.826C9.14467 9.16333 10.01 9.49333 10.67 9.816C11.3447 10.124 11.924 10.586 12.408 11.202C12.892 11.818 13.134 12.6247 13.134 13.622ZM4.862 6.538C4.862 6.934 4.994 7.27133 5.258 7.55C5.53667 7.814 5.93267 8.056 6.446 8.276V5.086C5.94733 5.11533 5.55867 5.25467 5.28 5.504C5.00133 5.75333 4.862 6.098 4.862 6.538ZM7.392 15.272C7.92 15.2573 8.338 15.1107 8.646 14.832C8.954 14.5387 9.108 14.1647 9.108 13.71C9.108 13.2993 8.96133 12.962 8.668 12.698C8.37467 12.4193 7.94933 12.1773 7.392 11.972V15.272Z" fill="white"/>
</svg>
