<svg width="22" height="23" viewBox="0 0 22 23" fill="none" xmlns="http://www.w3.org/2000/svg">
<path fill-rule="evenodd" clip-rule="evenodd" d="M21.6801 11.3126C21.6801 10.5282 21.6097 9.77406 21.479 9.05005H11.0613V13.3287H17.0142C16.7578 14.7114 15.9785 15.8829 14.807 16.6672V19.4426H18.3818C20.4734 17.5169 21.6801 14.6812 21.6801 11.3126Z" fill="#4285F4"/>
<path fill-rule="evenodd" clip-rule="evenodd" d="M11.0608 22.1224C14.0473 22.1224 16.5512 21.132 18.3813 19.4426L14.8065 16.6672C13.816 17.3309 12.549 17.7231 11.0608 17.7231C8.1798 17.7231 5.7413 15.7773 4.87149 13.1628H1.17603V16.0287C2.9961 19.6437 6.73681 22.1224 11.0608 22.1224Z" fill="#34A853"/>
<path fill-rule="evenodd" clip-rule="evenodd" d="M4.87198 13.1629C4.65075 12.4992 4.52505 11.7903 4.52505 11.0613C4.52505 10.3322 4.65075 9.62329 4.87198 8.95962V6.09375H1.17651C0.427366 7.58702 0 9.27637 0 11.0613C0 12.8461 0.427366 14.5355 1.17651 16.0288L4.87198 13.1629Z" fill="#FBBC05"/>
<path fill-rule="evenodd" clip-rule="evenodd" d="M11.0608 4.39936C12.6847 4.39936 14.1428 4.95745 15.2892 6.05352L18.4617 2.88095C16.5461 1.09607 14.0423 0 11.0608 0C6.73681 0 2.9961 2.47872 1.17603 6.09374L4.87149 8.95961C5.7413 6.34513 8.1798 4.39936 11.0608 4.39936Z" fill="#EA4335"/>
</svg>
