<svg width="30" height="28" viewBox="0 0 30 28" fill="none" xmlns="http://www.w3.org/2000/svg">
<path d="M22.2247 10.9563C22.2246 10.9563 25.9555 11.834 25.9555 11.834C26.4271 11.9498 26.9342 11.786 27.2768 11.4489C27.3792 11.4743 29.2325 8.16871 29.3363 8.0422C29.7303 7.37318 29.5074 6.51104 28.8384 6.11655C28.1703 5.72488 27.3086 5.94546 26.9137 6.61449L26.456 7.3916C21.2856 -1.86524 7.3078 -1.23341 2.96803 8.52749C2.24058 10.2249 4.72962 11.3566 5.52882 9.68769C8.82117 2.18157 19.6174 1.49251 23.8185 8.44326C23.8185 8.44309 22.868 8.21976 22.868 8.21976C21.0628 7.82585 20.4329 10.5037 22.2247 10.9563Z" fill="white"/>
<path d="M2.52067 16.7703C2.52067 16.7702 0.672846 19.9076 0.672846 19.9076C-0.234617 21.5099 2.12098 22.915 3.09545 21.3353C3.09545 21.3353 3.55316 20.5582 3.55316 20.5582C5.86709 24.6076 10.1745 27.1836 15.0047 27.1836C20.1793 27.1836 24.9037 24.1368 27.0412 19.4225C27.3615 18.716 27.0485 17.8822 26.341 17.5619C25.6331 17.2416 24.8007 17.5546 24.4804 18.262C22.7978 21.9732 19.0783 24.372 15.0047 24.372C11.3411 24.372 8.05498 22.494 6.19068 19.5067L7.14116 19.73C8.9459 20.1258 9.57624 17.4452 7.7845 16.9935C7.78455 16.9935 4.05367 16.1158 4.05367 16.1158C3.46772 15.9835 2.82645 16.2475 2.52067 16.7703Z" fill="white"/>
</svg>
