<svg width="29" height="17" viewBox="0 0 29 17" fill="none" xmlns="http://www.w3.org/2000/svg">
<path d="M4.25 2.75C3.4676 2.75 2.83333 3.36561 2.83333 4.125V12.375C2.83333 13.1344 3.4676 13.75 4.25 13.75H17C17.7824 13.75 18.4167 13.1344 18.4167 12.375V4.125C18.4167 3.36561 17.7824 2.75 17 2.75H4.25ZM4.25 0H17C19.3472 0 21.25 1.84683 21.25 4.125V12.375C21.25 14.6532 19.3472 16.5 17 16.5H4.25C1.90279 16.5 0 14.6532 0 12.375V4.125C0 1.84683 1.90279 0 4.25 0Z" fill="white"/>
<path d="M21.2498 10.0704L25.4998 11.7204V4.78228L21.2498 6.43228V10.0704ZM19.307 4.2247L26.3904 1.4747C27.3209 1.11343 28.3332 1.77859 28.3332 2.75136V13.7514C28.3332 14.7241 27.3209 15.3893 26.3904 15.028L19.307 12.278C18.7692 12.0692 18.4165 11.5636 18.4165 11.0014V5.50136C18.4165 4.93911 18.7692 4.43351 19.307 4.2247Z" fill="white"/>
</svg>
