<svg width="21" height="18" viewBox="0 0 21 18" fill="none" xmlns="http://www.w3.org/2000/svg">
<path d="M4.42 14.7298C2.19 13.2698 0.75 11.0698 0.75 9.13984C0.75 5.85984 4.89 1.83984 10 1.83984C12.09 1.83984 14.03 2.50984 15.59 3.54984" stroke="#130F26" stroke-width="1.5" stroke-linecap="round" stroke-linejoin="round"/>
<path d="M17.8498 5.61035C18.7408 6.74035 19.2598 7.99035 19.2598 9.14035C19.2598 12.4204 15.1098 16.4404 9.99975 16.4404C9.08975 16.4404 8.20075 16.3104 7.36975 16.0804" stroke="#130F26" stroke-width="1.5" stroke-linecap="round" stroke-linejoin="round"/>
<path d="M7.76572 11.3672C7.17072 10.7782 6.83772 9.97518 6.84072 9.13818C6.83672 7.39318 8.24872 5.97518 9.99472 5.97218C10.8347 5.97018 11.6407 6.30318 12.2347 6.89718" stroke="#130F26" stroke-width="1.5" stroke-linecap="round" stroke-linejoin="round"/>
<path d="M13.1095 9.69922C12.8755 10.9912 11.8645 12.0042 10.5725 12.2412" stroke="#130F26" stroke-width="1.5" stroke-linecap="round" stroke-linejoin="round"/>
<path d="M17.8917 1.25L2.11768 17.024" stroke="#130F26" stroke-width="1.5" stroke-linecap="round" stroke-linejoin="round"/>
</svg>
