<svg width="22" height="22" viewBox="0 0 22 22" fill="none" xmlns="http://www.w3.org/2000/svg">
<path d="M8.23827 19.7714V16.7047C8.23825 15.9246 8.87417 15.2908 9.66207 15.2856H12.5481C13.3398 15.2856 13.9816 15.9209 13.9816 16.7047V16.7047V19.7809C13.9814 20.4432 14.5153 20.9845 15.1841 21H17.1081C19.0262 21 20.5811 19.4607 20.5811 17.5618V17.5618V8.83784C20.5708 8.09083 20.2165 7.38935 19.619 6.93303L13.0388 1.6853C11.886 0.771566 10.2473 0.771566 9.09447 1.6853L2.54308 6.94256C1.94331 7.39702 1.58844 8.09967 1.58105 8.84736V17.5618C1.58105 19.4607 3.13593 21 5.05397 21H6.97802C7.66341 21 8.21903 20.4499 8.21903 19.7714V19.7714" stroke="white" stroke-width="1.5" stroke-linecap="round" stroke-linejoin="round"/>
</svg>
