<svg width="24" height="24" viewBox="0 0 24 24" fill="none" xmlns="http://www.w3.org/2000/svg">
<path d="M2.21995 9.21881L6.71395 4.72381C6.84094 4.59679 7.0093 4.51957 7.1884 4.50617C7.36751 4.49277 7.54548 4.5441 7.68995 4.65081L7.77495 4.72281L12.279 9.21781C12.4122 9.35165 12.4901 9.53085 12.497 9.71961C12.5039 9.90837 12.4394 10.0928 12.3162 10.236C12.1931 10.3792 12.0204 10.4707 11.8328 10.4922C11.6451 10.5137 11.4563 10.4635 11.304 10.3518L11.22 10.2798L7.99695 7.06281L7.99695 18.7588C7.99674 18.9397 7.93113 19.1145 7.81223 19.2508C7.69334 19.3872 7.52915 19.476 7.34995 19.5008L7.24895 19.5078C7.06772 19.5078 6.89261 19.4422 6.75602 19.323C6.61943 19.2039 6.5306 19.0394 6.50595 18.8598L6.49895 18.7578L6.49795 7.05981L3.28095 10.2778C3.15396 10.4048 2.98561 10.4821 2.8065 10.4955C2.62739 10.5089 2.44942 10.4575 2.30495 10.3508L2.22095 10.2778C2.09394 10.1508 2.01671 9.98247 2.00331 9.80336C1.98991 9.62425 2.04124 9.44628 2.14795 9.30181L2.22095 9.21781L6.71495 4.72281L2.22095 9.21781L2.21995 9.21881ZM16.65 4.50081L16.75 4.49381C16.9314 4.49358 17.1067 4.5591 17.2435 4.67825C17.3803 4.7974 17.4693 4.96209 17.494 5.14181L17.501 5.24381L17.5 16.9398L20.72 13.7188C20.8469 13.5918 21.0153 13.5146 21.1944 13.5012C21.3735 13.4878 21.5515 13.5391 21.696 13.6458L21.78 13.7178C21.9072 13.8449 21.9846 14.0134 21.998 14.1927C22.0114 14.3721 21.9599 14.5503 21.853 14.6948L21.781 14.7788L17.284 19.2788C17.157 19.4058 16.9886 19.4831 16.8095 19.4965C16.6304 19.5099 16.4524 19.4585 16.308 19.3518L16.224 19.2788L11.72 14.7788C11.587 14.6448 11.5095 14.4656 11.5028 14.277C11.4962 14.0883 11.5609 13.9041 11.6841 13.7611C11.8073 13.618 11.9799 13.5267 12.1675 13.5054C12.355 13.484 12.5437 13.5342 12.696 13.6458L12.78 13.7178L16 16.9358V5.24381C16 5.06227 16.0659 4.88692 16.1855 4.75029C16.305 4.61366 16.47 4.52502 16.65 4.50081L16.75 4.49381L16.65 4.50081Z" fill="white"/>
</svg>
