<svg width="22" height="23" viewBox="0 0 22 23" fill="none" xmlns="http://www.w3.org/2000/svg">
<path d="M16.7171 4.69824C16.4648 4.69824 16.2182 4.77305 16.0084 4.91322C15.7986 5.05339 15.6351 5.2526 15.5386 5.48569C15.442 5.71878 15.4168 5.97528 15.466 6.22273C15.5152 6.47018 15.6367 6.69746 15.8151 6.87586C15.9935 7.05426 16.2208 7.17575 16.4682 7.22497C16.7157 7.27419 16.9722 7.24893 17.2053 7.15238C17.4383 7.05583 17.6376 6.89232 17.7777 6.68255C17.9179 6.47277 17.9927 6.22614 17.9927 5.97385C17.9906 5.63618 17.8556 5.31294 17.6168 5.07416C17.378 4.83538 17.0548 4.70032 16.7171 4.69824Z" fill="white"/>
<path d="M11.0046 6.33032C9.94182 6.33032 8.90291 6.64558 8.01934 7.2362C7.13577 7.82682 6.44726 8.66625 6.04091 9.64829C5.63456 10.6303 5.52863 11.7108 5.73655 12.7531C5.94447 13.7954 6.45688 14.7525 7.20894 15.5035C7.96101 16.2544 8.91892 16.7654 9.96148 16.9718C11.004 17.1782 12.0844 17.0707 13.0658 16.6629C14.0473 16.2551 14.8857 15.5653 15.475 14.6809C16.0643 13.7964 16.378 12.757 16.3765 11.6943C16.3744 10.2709 15.8075 8.9066 14.8003 7.9009C13.7931 6.89519 12.428 6.33032 11.0046 6.33032ZM11.0046 15.1408C10.3226 15.1424 9.65548 14.9416 9.08766 14.5638C8.51984 14.1861 8.07685 13.6483 7.81477 13.0187C7.55269 12.3891 7.48331 11.6958 7.6154 11.0267C7.74749 10.3576 8.07512 9.7428 8.55681 9.26C9.0385 8.77719 9.6526 8.44816 10.3214 8.31453C10.9902 8.1809 11.6836 8.24869 12.3138 8.50932C12.944 8.76995 13.4828 9.21169 13.8618 9.77864C14.2409 10.3456 14.4432 11.0123 14.4432 11.6943C14.4443 12.1469 14.3562 12.5952 14.1839 13.0138C14.0117 13.4324 13.7587 13.8129 13.4394 14.1337C13.1201 14.4544 12.7407 14.7092 12.3229 14.8834C11.9052 15.0575 11.4572 15.1477 11.0046 15.1487V15.1408Z" fill="white"/>
<path d="M15.291 22.6045H6.57558C4.83914 22.6045 3.17371 21.9153 1.94512 20.6882C0.716536 19.4611 0.0252625 17.7965 0.0231628 16.0601V7.34464C0.0252596 5.60747 0.716279 3.94206 1.94464 2.7137C3.173 1.48534 4.83841 0.794333 6.57558 0.792236H15.291C17.0282 0.794333 18.6936 1.48534 19.9219 2.7137C21.1503 3.94206 21.8413 5.60747 21.8434 7.34464V16.0601C21.8413 17.7965 21.15 19.4611 19.9214 20.6882C18.6929 21.9153 17.0274 22.6045 15.291 22.6045ZM6.57558 2.85222C5.38266 2.85432 4.2392 3.32914 3.39568 4.17266C2.55216 5.01618 2.07734 6.15965 2.07524 7.35257V16.068C2.07734 17.2609 2.55216 18.4043 3.39568 19.2479C4.2392 20.0914 5.38266 20.5662 6.57558 20.5683H15.291C16.4839 20.5662 17.6274 20.0914 18.4709 19.2479C19.3144 18.4043 19.7892 17.2609 19.7913 16.068V7.35257C19.7892 6.15965 19.3144 5.01618 18.4709 4.17266C17.6274 3.32914 16.4839 2.85432 15.291 2.85222H6.57558Z" fill="white"/>
</svg>
