<svg width="20" height="20" viewBox="0 0 20 20" fill="none" xmlns="http://www.w3.org/2000/svg">
<g clip-path="url(#clip0_2_9342)">
<path d="M19.5012 5.67996C19.3621 5.56095 19.1843 5.49687 19.0012 5.49991H18.2913H1.04128C0.746511 5.46226 0.448618 5.54129 0.211199 5.72C0.139135 5.84434 0.0931359 5.98198 0.0759451 6.12466C0.0587542 6.26735 0.0708771 6.41205 0.111345 6.54995C0.691345 10.65 1.27802 14.75 1.87136 18.85C1.95136 19.41 2.14143 19.58 2.70143 19.58H17.0112C17.5412 19.58 17.7413 19.4 17.8213 18.87L17.9612 17.87C18.3879 14.91 18.8146 11.95 19.2412 8.99002C19.3512 8.22002 19.4913 7.19994 19.5913 6.15994C19.6115 6.07814 19.6139 5.99298 19.5984 5.91018C19.5829 5.82739 19.5496 5.7489 19.5012 5.67996ZM16.5613 18.2H3.13137L1.49123 6.80996H18.2014L16.5613 18.2Z" fill="white"/>
<path d="M18.7012 3.49983C18.6787 3.66443 18.593 3.81395 18.4624 3.91658C18.3318 4.01922 18.1662 4.06698 18.001 4.04988H1.66113C1.48079 4.04988 1.3077 3.97831 1.18018 3.85079C1.05265 3.72326 0.980958 3.5503 0.980958 3.36995C0.980784 3.28374 0.99834 3.19838 1.03247 3.11922C1.0666 3.04005 1.11664 2.96868 1.17944 2.90962C1.24225 2.85057 1.31659 2.80504 1.39771 2.77583C1.47882 2.74663 1.56509 2.73447 1.65112 2.73995C2.57112 2.73995 3.48112 2.73995 4.40112 2.73995H17.8311C17.987 2.71917 18.1451 2.71917 18.301 2.73995C18.4487 2.79632 18.5709 2.9045 18.6445 3.04439C18.7182 3.18428 18.7383 3.34618 18.7012 3.49983Z" fill="white"/>
<path d="M16.8312 0.560116C16.8492 0.651726 16.8459 0.746208 16.8216 0.836362C16.7974 0.926515 16.7528 1.00995 16.6913 1.08014C16.6139 1.16313 16.519 1.22769 16.4134 1.26922C16.3079 1.31075 16.1943 1.32818 16.0812 1.32013H3.38121C3.21323 1.30739 3.05639 1.23095 2.94298 1.10638C2.82957 0.981815 2.76807 0.818514 2.7711 0.650082C2.76839 0.484681 2.8308 0.324881 2.94493 0.205136C3.05906 0.0853913 3.21587 0.0152969 3.38121 0.0100676H16.0712C16.2442 -0.0134009 16.4196 0.0307185 16.5611 0.133114C16.7026 0.23551 16.7994 0.38838 16.8312 0.560116Z" fill="white"/>
<path d="M14.1515 8.94009V14.2301C14.165 14.4409 14.1361 14.6522 14.0665 14.8516C13.9969 15.051 13.8879 15.2345 13.7462 15.3911C13.6045 15.5478 13.4328 15.6744 13.2413 15.7636C13.0498 15.8527 12.8425 15.9025 12.6315 15.9101C12.2151 15.9366 11.8052 15.7966 11.4921 15.5209C11.1789 15.2452 10.9878 14.8565 10.9613 14.4401C10.9348 14.0237 11.0748 13.6139 11.3505 13.3007C11.6261 12.9875 12.0151 12.7966 12.4315 12.77L12.8114 12.6801V9.68008L8.71129 10.3701V10.7301C8.71129 10.8401 8.71129 10.9401 8.71129 11.0501V12.4C8.71129 13.4 8.71129 14.3401 8.71129 15.3201C8.70963 15.69 8.57398 16.0469 8.32945 16.3245C8.08492 16.6021 7.74824 16.7817 7.38146 16.8301C7.17856 16.8669 6.97043 16.8633 6.76891 16.8196C6.56739 16.7759 6.37636 16.693 6.2069 16.5756C6.03743 16.4581 5.89273 16.3084 5.78111 16.135C5.6695 15.9617 5.59327 15.768 5.5565 15.5651C5.51973 15.3622 5.52309 15.1541 5.56676 14.9525C5.61043 14.751 5.69343 14.5601 5.8109 14.3906C5.92837 14.2212 6.0782 14.0765 6.25157 13.9649C6.42495 13.8533 6.61851 13.7769 6.8214 13.7401H7.03136H7.40148V10.0701C7.40148 9.48009 7.56148 9.3001 8.15148 9.2001L13.0814 8.37014H13.3614H13.5013C13.6743 8.3599 13.845 8.41315 13.9813 8.52004C14.0778 8.64044 14.137 8.78649 14.1515 8.94009Z" fill="white"/>
</g>
<defs>
<clipPath id="clip0_2_9342">
<rect width="19.52" height="19.55" fill="white" transform="translate(0.0810547)"/>
</clipPath>
</defs>
</svg>
