<svg width="24" height="29" viewBox="0 0 24 29" fill="none" xmlns="http://www.w3.org/2000/svg">
<path d="M13.4163 26.875C13.4163 27.6344 12.7821 28.25 11.9997 28.25C11.2173 28.25 10.583 27.6344 10.583 26.875V22.75C10.583 21.9906 11.2173 21.375 11.9997 21.375C12.7821 21.375 13.4163 21.9906 13.4163 22.75V26.875Z" fill="white"/>
<path d="M11.9998 3.5C9.65263 3.5 7.74984 5.34683 7.74984 7.625V13.125C7.74984 15.4032 9.65263 17.25 11.9998 17.25C14.347 17.25 16.2498 15.4032 16.2498 13.125V7.625C16.2498 5.34683 14.347 3.5 11.9998 3.5ZM11.9998 0.75C15.9119 0.75 19.0832 3.82804 19.0832 7.625V13.125C19.0832 16.922 15.9119 20 11.9998 20C8.08782 20 4.9165 16.922 4.9165 13.125V7.625C4.9165 3.82804 8.08782 0.75 11.9998 0.75Z" fill="white"/>
<path d="M20.4998 13.125C20.4998 12.3656 21.1341 11.75 21.9165 11.75C22.6989 11.75 23.3332 12.3656 23.3332 13.125C23.3332 19.2001 18.2591 24.125 11.9998 24.125C5.74061 24.125 0.666504 19.2001 0.666504 13.125C0.666504 12.3656 1.30077 11.75 2.08317 11.75C2.86557 11.75 3.49984 12.3656 3.49984 13.125C3.49984 17.6813 7.30542 21.375 11.9998 21.375C16.6943 21.375 20.4998 17.6813 20.4998 13.125Z" fill="white"/>
</svg>
