<svg width="24" height="22" viewBox="0 0 24 22" fill="none" xmlns="http://www.w3.org/2000/svg">
<path d="M15.4102 17.0002C15.8789 17.0002 16.276 16.8375 16.6016 16.512C16.9271 16.1864 17.0898 15.7893 17.0898 15.3206V14.5002H9.58984C9.12109 14.5002 8.72396 14.3375 8.39844 14.012C8.07292 13.6864 7.91016 13.2893 7.91016 12.8206V6.17993C7.91016 5.71118 8.07292 5.31404 8.39844 4.98852C8.72396 4.663 9.12109 4.50024 9.58984 4.50024H17.0898V3.67993C17.0898 3.21118 16.9271 2.81404 16.6016 2.48852C16.276 2.163 15.8789 2.00024 15.4102 2.00024H3.76953C3.30078 2.00024 2.90365 2.163 2.57813 2.48852C2.2526 2.81404 2.08984 3.21118 2.08984 3.67993V15.3206C2.08984 15.7893 2.2526 16.1864 2.57813 16.512C2.90365 16.8375 3.30078 17.0002 3.76953 17.0002H15.4102ZM17.9102 12.8206V6.17993H9.58984V12.8206H17.9102ZM12.9297 8.25024C13.2813 8.25024 13.5742 8.37394 13.8086 8.62133C14.043 8.86873 14.1602 9.1617 14.1602 9.50024C14.1602 9.83878 14.043 10.1318 13.8086 10.3792C13.5742 10.6265 13.2813 10.7502 12.9297 10.7502C12.5781 10.7502 12.2787 10.6265 12.0313 10.3792C11.7839 10.1318 11.6602 9.83878 11.6602 9.50024C11.6602 9.1617 11.7839 8.86873 12.0313 8.62133C12.2787 8.37394 12.5781 8.25024 12.9297 8.25024ZM15.4102 18.2502H3.76953C2.97082 18.2502 2.2532 17.9548 1.69425 17.3958C1.13529 16.8369 0.839844 16.1193 0.839844 15.3206V3.67993C0.839844 2.8812 1.13529 2.16357 1.69426 1.60462C2.2532 1.04569 2.97082 0.750244 3.76953 0.750244H15.4102C16.2089 0.750244 16.9265 1.04569 17.4854 1.60464C18.0444 2.16359 18.3398 2.88121 18.3398 3.67993V4.92993H19.1602V14.0706H18.3398V15.3206C18.3398 16.1193 18.0444 16.8369 17.4854 17.3958C16.9265 17.9548 16.2089 18.2502 15.4102 18.2502Z" fill="white"/>
<path d="M22 13.0002H15V20.0002H22V13.0002Z" fill="#24272C"/>
<path d="M22.75 12.2502H14.25V20.7502H22.75V12.2502Z" stroke="#24272C" stroke-width="1.5"/>
<path d="M19.93 20.4302H19.18H17.5003H16.7503V19.6802V17.9302H15.0003H14.2503V17.1802V15.5005V14.7505H15.0003H16.7503V13.0005V12.2505H17.5003H19.18H19.93V13.0005V14.7505H21.68H22.43V15.5005V17.1802V17.9302H21.68H19.93V19.6802V20.4302Z" fill="white"/>
<path d="M19.18 19.6802V17.1802H21.68V15.5005H19.18V13.0005H17.5003V15.5005H15.0003V17.1802H17.5003V19.6802H19.18ZM20.68 21.1802H16.0003V18.6802H13.5003V14.0005H16.0003V11.5005H20.68V14.0005H23.18V18.6802H20.68V21.1802Z" fill="#24272C"/>
</svg>
