<svg width="20" height="20" viewBox="0 0 20 20" fill="none" xmlns="http://www.w3.org/2000/svg">
<path fill-rule="evenodd" clip-rule="evenodd" d="M8.68886 9.99995C8.68886 11.0229 7.85986 11.8519 6.83686 11.8519C5.81386 11.8519 4.98486 11.0229 4.98486 9.99995C4.98486 8.97695 5.81386 8.14795 6.83686 8.14795H6.83986C7.86186 8.14895 8.68886 8.97795 8.68886 9.99995Z" stroke="white" stroke-width="1.5" stroke-linecap="round" stroke-linejoin="round"/>
<path d="M8.69189 10H15.0099V11.852" stroke="white" stroke-width="1.5" stroke-linecap="round" stroke-linejoin="round"/>
<path d="M12.1821 11.852V10" stroke="white" stroke-width="1.5" stroke-linecap="round" stroke-linejoin="round"/>
<path fill-rule="evenodd" clip-rule="evenodd" d="M0.75 10C0.75 3.063 3.063 0.75 10 0.75C16.937 0.75 19.25 3.063 19.25 10C19.25 16.937 16.937 19.25 10 19.25C3.063 19.25 0.75 16.937 0.75 10Z" stroke="white" stroke-width="1.5" stroke-linecap="round" stroke-linejoin="round"/>
</svg>
