<svg xmlns="http://www.w3.org/2000/svg" xmlns:xlink="http://www.w3.org/1999/xlink" width="500" zoomAndPan="magnify" viewBox="0 0 375 374.999991" height="500" preserveAspectRatio="xMidYMid meet" version="1.0"><defs><clipPath id="ed412084e4"><path d="M 123.136719 112.5 L 239 112.5 L 239 246 L 123.136719 246 Z M 123.136719 112.5 " clip-rule="nonzero"/></clipPath><clipPath id="20c3eed793"><path d="M 154 150 L 251 150 L 251 262.5 L 154 262.5 Z M 154 150 " clip-rule="nonzero"/></clipPath></defs><g clip-path="url(#ed412084e4)"><path fill="#27346a" d="M 231.960938 123.820312 C 224.996094 115.902344 212.417969 112.507812 196.3125 112.507812 L 149.59375 112.507812 C 146.300781 112.507812 143.5 114.898438 142.984375 118.136719 L 123.53125 241.253906 C 123.144531 243.683594 125.027344 245.878906 127.496094 245.878906 L 156.339844 245.878906 L 163.582031 200.03125 L 163.359375 201.46875 C 163.875 198.222656 166.652344 195.835938 169.941406 195.835938 L 183.648438 195.835938 C 210.578125 195.835938 231.660156 184.921875 237.820312 153.351562 C 238 152.417969 238.160156 151.511719 238.296875 150.621094 C 237.519531 150.210938 237.519531 150.210938 238.296875 150.621094 C 240.132812 138.953125 238.285156 131.011719 231.960938 123.820312 " fill-opacity="1" fill-rule="nonzero"/><path fill="#27346a" d="M 174.621094 146.417969 C 175.390625 146.054688 176.246094 145.847656 177.144531 145.847656 L 213.773438 145.847656 C 218.113281 145.847656 222.160156 146.132812 225.855469 146.726562 C 226.914062 146.894531 227.945312 147.089844 228.941406 147.316406 C 229.9375 147.535156 230.90625 147.78125 231.84375 148.058594 C 232.316406 148.195312 232.78125 148.335938 233.234375 148.484375 C 235.046875 149.089844 236.742188 149.796875 238.296875 150.621094 C 240.132812 138.949219 238.285156 131.011719 231.960938 123.820312 C 224.996094 115.902344 212.417969 112.507812 196.3125 112.507812 L 149.589844 112.507812 C 146.300781 112.507812 143.5 114.898438 142.984375 118.136719 L 123.53125 241.25 C 123.144531 243.683594 125.027344 245.875 127.492188 245.875 L 156.339844 245.875 L 171.367188 150.777344 C 171.675781 148.824219 172.933594 147.226562 174.621094 146.417969 Z M 174.621094 146.417969 " fill-opacity="1" fill-rule="nonzero"/></g><g clip-path="url(#20c3eed793)"><path fill="#2790c3" d="M 237.820312 153.351562 C 231.660156 184.917969 210.578125 195.835938 183.648438 195.835938 L 169.9375 195.835938 C 166.648438 195.835938 163.871094 198.222656 163.359375 201.46875 L 154.347656 258.472656 C 154.011719 260.597656 155.65625 262.523438 157.8125 262.523438 L 182.125 262.523438 C 185.003906 262.523438 187.453125 260.429688 187.902344 257.59375 L 188.140625 256.359375 L 192.722656 227.378906 L 193.015625 225.78125 C 193.464844 222.945312 195.914062 220.855469 198.792969 220.855469 L 202.433594 220.855469 C 225.988281 220.855469 244.429688 211.304688 249.820312 183.691406 C 252.070312 172.152344 250.90625 162.515625 244.953125 155.746094 C 243.152344 153.695312 240.90625 152.003906 238.296875 150.621094 C 238.15625 151.511719 238 152.417969 237.820312 153.351562 Z M 237.820312 153.351562 " fill-opacity="1" fill-rule="nonzero"/></g><path fill="#1f264f" d="M 231.851562 148.058594 C 230.910156 147.78125 229.941406 147.535156 228.941406 147.316406 C 227.949219 147.09375 226.914062 146.898438 225.859375 146.730469 C 222.160156 146.132812 218.117188 145.847656 213.773438 145.847656 L 177.148438 145.847656 C 176.246094 145.847656 175.390625 146.054688 174.625 146.421875 C 172.933594 147.230469 171.679688 148.824219 171.371094 150.777344 L 163.585938 200.03125 L 163.363281 201.46875 C 163.875 198.222656 166.652344 195.835938 169.941406 195.835938 L 183.65625 195.835938 C 210.578125 195.835938 231.664062 184.921875 237.824219 153.351562 C 238.003906 152.417969 238.160156 151.511719 238.300781 150.621094 C 236.742188 149.800781 235.054688 149.089844 233.234375 148.488281 C 232.785156 148.339844 232.320312 148.195312 231.851562 148.058594 " fill-opacity="1" fill-rule="nonzero"/></svg>