<svg width="18" height="32" viewBox="0 0 18 32" fill="none" xmlns="http://www.w3.org/2000/svg">
<g clip-path="url(#clip0_2_263)">
<path d="M1.77876 31.32C1.64557 31.2743 1.51076 31.2326 1.37921 31.1827C0.97047 31.0292 0.619142 30.7532 0.373285 30.3924C0.127428 30.0315 -0.000951847 29.6036 0.00570969 29.167C0.00135198 26.7703 0.00135198 24.3735 0.00570969 21.9768V2.34663C0.00570969 0.857923 0.867723 0 2.36215 0H15.6673C17.1193 0 17.9936 0.87018 17.9936 2.3164V28.7078C17.9936 30.2537 17.6389 30.7758 16.2189 31.3225L1.77876 31.32ZM17.0131 15.6911V2.3262C17.0131 1.40945 16.5825 0.978851 15.6665 0.978851H2.32701C1.40944 0.978851 0.979661 1.40863 0.979661 2.32457V28.993C0.979661 29.9089 1.41107 30.3412 2.32538 30.3412H15.6616C16.5776 30.3412 17.0098 29.9089 17.0098 28.9946L17.0131 15.6911Z" fill="white"/>
<path d="M8.99276 29.7334C8.77624 29.7334 8.56186 29.6906 8.36189 29.6076C8.16192 29.5246 7.98029 29.403 7.82742 29.2497C7.67455 29.0963 7.55344 28.9143 7.47103 28.7141C7.38862 28.5139 7.34653 28.2994 7.34718 28.0829C7.35392 27.6516 7.52825 27.2398 7.83326 26.9348C8.13827 26.6298 8.55002 26.4555 8.98132 26.4487C9.41856 26.4485 9.83825 26.6207 10.1493 26.9281C10.4603 27.2354 10.6375 27.653 10.6424 28.0902C10.6413 28.5268 10.467 28.9451 10.1577 29.2532C9.84833 29.5613 9.42935 29.734 8.99276 29.7334ZM8.98541 28.7529C9.16003 28.7553 9.32864 28.6892 9.45499 28.5686C9.58135 28.4481 9.65536 28.2827 9.66112 28.1082C9.662 27.9285 9.59163 27.7559 9.46543 27.628C9.33924 27.5001 9.16751 27.4275 8.98786 27.426C8.81337 27.4305 8.64737 27.5022 8.5244 27.6261C8.40143 27.75 8.33097 27.9165 8.32766 28.091C8.32914 28.2654 8.39878 28.4323 8.5217 28.556C8.64462 28.6796 8.81105 28.7503 8.98541 28.7529Z" fill="white"/>
<path d="M8.96411 3.11948C8.46406 3.11948 7.96483 3.11948 7.4656 3.11948C7.12161 3.11948 6.91734 2.93319 6.91244 2.64067C6.90754 2.34816 7.11262 2.15043 7.44926 2.1439C8.47877 2.13791 9.50855 2.13791 10.5386 2.1439C10.8752 2.1439 11.0811 2.34735 11.0762 2.63986C11.0713 2.93237 10.8654 3.11621 10.5239 3.11948C10.0042 3.12275 9.48377 3.11948 8.96411 3.11948Z" fill="white"/>
</g>
<defs>
<clipPath id="clip0_2_263">
<rect width="17.9887" height="31.32" fill="white"/>
</clipPath>
</defs>
</svg>
