<svg width="20" height="20" viewBox="0 0 20 20" fill="none" xmlns="http://www.w3.org/2000/svg">
<circle cx="10" cy="10" r="9.25" stroke="white" stroke-width="1.5"/>
<circle cx="10" cy="10" r="9.25" stroke="white" stroke-width="1.5"/>
<path d="M9.05 11.38V14H7.64V6.94H10.21C11.0433 6.94 11.67 7.14 12.09 7.54C12.5167 7.94 12.73 8.48333 12.73 9.17C12.73 9.84333 12.51 10.38 12.07 10.78C11.6367 11.18 11.0167 11.38 10.21 11.38H9.05ZM10.06 10.25C10.8867 10.25 11.3 9.89 11.3 9.17C11.3 8.81667 11.2033 8.54667 11.01 8.36C10.8167 8.17333 10.5 8.08 10.06 8.08H9.05V10.25H10.06Z" fill="white"/>
</svg>
