<svg width="16" height="22" viewBox="0 0 16 22" fill="none" xmlns="http://www.w3.org/2000/svg">
<path fill-rule="evenodd" clip-rule="evenodd" d="M7.9256 20.6618C4.23378 20.6618 1.08105 20.0873 1.08105 17.7865C1.08105 15.4858 4.21378 13.3618 7.9256 13.3618C11.6174 13.3618 14.7701 15.4652 14.7701 17.766C14.7701 20.0658 11.6374 20.6618 7.9256 20.6618Z" stroke="white" stroke-width="1.5" stroke-linecap="round" stroke-linejoin="round"/>
<path fill-rule="evenodd" clip-rule="evenodd" d="M7.91855 10.1735C10.3413 10.1735 12.3049 8.2099 12.3049 5.78718C12.3049 3.36445 10.3413 1.3999 7.91855 1.3999C5.49582 1.3999 3.53128 3.36445 3.53128 5.78718C3.52309 8.20172 5.47309 10.1654 7.88764 10.1735C7.89855 10.1735 7.90855 10.1735 7.91855 10.1735Z" stroke="white" stroke-width="1.5" stroke-linecap="round" stroke-linejoin="round"/>
</svg>
