<svg width="18" height="20" viewBox="0 0 18 20" fill="none" xmlns="http://www.w3.org/2000/svg">
<path fill-rule="evenodd" clip-rule="evenodd" d="M9.00001 7.7085C10.2658 7.7085 11.2917 8.73436 11.2917 10.0002C11.2917 11.266 10.2658 12.2918 9.00001 12.2918C7.7342 12.2918 6.70834 11.266 6.70834 10.0002C6.70834 8.73436 7.7342 7.7085 9.00001 7.7085Z" stroke="white" stroke-width="1.5" stroke-linecap="round" stroke-linejoin="round"/>
<path fill-rule="evenodd" clip-rule="evenodd" d="M16.4873 5.64614V5.64614C15.8608 4.55324 14.4736 4.17928 13.3895 4.8104C12.4465 5.3582 11.2679 4.67276 11.2679 3.57624C11.2679 2.31493 10.2521 1.29175 8.99979 1.29175V1.29175C7.74752 1.29175 6.73168 2.31493 6.73168 3.57624C6.73168 4.67276 5.55313 5.3582 4.61101 4.8104C3.52594 4.17928 2.13883 4.55324 1.51224 5.64614C0.886558 6.73904 1.25783 8.13618 2.34289 8.76638C3.28502 9.3151 3.28502 10.6851 2.34289 11.2338C1.25783 11.8649 0.886558 13.262 1.51224 14.354C2.13883 15.4469 3.52594 15.8209 4.61011 15.1907H4.61101C5.55313 14.642 6.73168 15.3274 6.73168 16.4239V16.4239C6.73168 17.6852 7.74752 18.7084 8.99979 18.7084V18.7084C10.2521 18.7084 11.2679 17.6852 11.2679 16.4239V16.4239C11.2679 15.3274 12.4465 14.642 13.3895 15.1907C14.4736 15.8209 15.8608 15.4469 16.4873 14.354C17.1139 13.262 16.7418 11.8649 15.6576 11.2338H15.6567C14.7146 10.6851 14.7146 9.3151 15.6576 8.76638C16.7418 8.13618 17.1139 6.73904 16.4873 5.64614Z" stroke="white" stroke-width="1.5" stroke-linecap="round" stroke-linejoin="round"/>
</svg>
