<svg width="32" height="31" viewBox="0 0 32 31" fill="none" xmlns="http://www.w3.org/2000/svg">
<path fill-rule="evenodd" clip-rule="evenodd" d="M17 26C23.075 26 28 21.075 28 15C28 8.925 23.075 4 17 4C10.925 4 6 8.925 6 15C6 21.075 10.925 26 17 26ZM11.75 13C11.75 11.75 12.313 11 13.25 11C14.188 11 14.75 11.75 14.75 13C14.75 14.25 14.187 15 13.25 15C12.312 15 11.75 14.25 11.75 13ZM19.25 13C19.25 11.75 19.813 11 20.75 11C21.688 11 22.25 11.75 22.25 13C22.25 14.25 21.687 15 20.75 15C19.812 15 19.25 14.25 19.25 13ZM11.73 18.464C11.8147 18.3635 11.9183 18.2806 12.035 18.2202C12.1517 18.1597 12.2792 18.1229 12.4101 18.1117C12.5411 18.1006 12.6729 18.1154 12.7982 18.1552C12.9234 18.1951 13.0396 18.2592 13.14 18.344C14.2185 19.2542 15.5848 19.7524 16.996 19.75C18.466 19.75 19.809 19.222 20.852 18.344C20.9523 18.2585 21.0686 18.1936 21.1941 18.1532C21.3196 18.1127 21.4518 18.0975 21.5832 18.1084C21.7146 18.1193 21.8426 18.156 21.9597 18.2165C22.0769 18.277 22.1809 18.3601 22.2658 18.461C22.3507 18.5618 22.4148 18.6785 22.4545 18.8042C22.4941 18.93 22.5085 19.0623 22.4968 19.1937C22.4851 19.325 22.4476 19.4527 22.3864 19.5695C22.3251 19.6862 22.2414 19.7897 22.14 19.874C20.701 21.0878 18.8785 21.7525 16.996 21.75C15.1133 21.7522 13.2908 21.0872 11.852 19.873C11.6491 19.7022 11.5224 19.4578 11.4997 19.1936C11.477 18.9293 11.5602 18.6669 11.731 18.464H11.73Z" fill="#F6F6F6"/>
</svg>
