<svg width="18" height="18" viewBox="0 0 18 18" fill="none" xmlns="http://www.w3.org/2000/svg">
<path d="M9.00049 2V6.14796" stroke="#A30000" stroke-width="3" stroke-linecap="round"/>
<path d="M9.00049 11.8516V15.9995" stroke="#A30000" stroke-width="3" stroke-linecap="round"/>
<path d="M2 9H6.14796" stroke="#A30000" stroke-width="3" stroke-linecap="round"/>
<path d="M11.8521 9H16" stroke="#A30000" stroke-width="3" stroke-linecap="round"/>
<path d="M9.00035 14.8733C12.2435 14.8733 14.8725 12.2442 14.8725 9.00108C14.8725 5.75797 12.2435 3.12891 9.00035 3.12891C5.75724 3.12891 3.12817 5.75797 3.12817 9.00108C3.12817 12.2442 5.75724 14.8733 9.00035 14.8733Z" fill="white"/>
<path d="M9.00039 13.7728C11.6354 13.7728 13.7715 11.6366 13.7715 9.00161C13.7715 6.36658 11.6354 4.23047 9.00039 4.23047C6.36536 4.23047 4.22925 6.36658 4.22925 9.00161C4.22925 11.6366 6.36536 13.7728 9.00039 13.7728Z" stroke="#A30000" stroke-width="3"/>
<path d="M9.00041 11.203C10.2166 11.203 11.2025 10.2171 11.2025 9.00089C11.2025 7.78473 10.2166 6.79883 9.00041 6.79883C7.78424 6.79883 6.79834 7.78473 6.79834 9.00089C6.79834 10.2171 7.78424 11.203 9.00041 11.203Z" fill="#1FCD6C"/>
</svg>
