<svg width="24" height="24" viewBox="0 0 24 24" fill="none" xmlns="http://www.w3.org/2000/svg">
<path fill-rule="evenodd" clip-rule="evenodd" d="M21.4399 13.9932C18.7789 13.9932 18.7789 9.87879 21.4399 9.87879C21.4399 5.11163 21.4399 3.41016 12.0449 3.41016C2.6499 3.41016 2.6499 5.11163 2.6499 9.87879C5.3109 9.87879 5.3109 13.9932 2.6499 13.9932C2.6499 18.7613 2.6499 20.4628 12.0449 20.4628C21.4399 20.4628 21.4399 18.7613 21.4399 13.9932Z" stroke="white" stroke-width="1.5" stroke-linecap="round" stroke-linejoin="round"/>
<path fill-rule="evenodd" clip-rule="evenodd" d="M12.0449 9.17188C11.3619 9.17188 11.2969 10.2613 10.8909 10.6469C10.4839 11.0316 9.22093 10.592 9.04493 11.275C8.86993 11.959 10.0069 12.1911 10.1479 12.7776C10.2879 13.364 9.59393 14.1882 10.1869 14.5993C10.7809 15.0086 11.4199 14.0811 12.0449 14.0811C12.6699 14.0811 13.3089 15.0086 13.9029 14.5993C14.4969 14.1882 13.8019 13.364 13.9419 12.7776C14.0829 12.1911 15.2199 11.959 15.0449 11.275C14.8689 10.592 13.6059 11.0316 13.1989 10.6469C12.7929 10.2613 12.7279 9.17188 12.0449 9.17188Z" stroke="white" stroke-width="1.5" stroke-linecap="round" stroke-linejoin="round"/>
</svg>
