<svg width="23" height="18" viewBox="0 0 23 18" fill="none" xmlns="http://www.w3.org/2000/svg">
<path d="M21.9217 2.301C21.2283 2.60135 20.4984 2.80913 19.7508 2.919C20.0994 2.86354 20.6144 2.22969 20.8204 1.97615C21.1394 1.58565 21.3838 1.13982 21.5414 0.660915C21.5414 0.621299 21.5414 0.573765 21.5414 0.542073C21.5246 0.532337 21.5054 0.527203 21.486 0.527203C21.4665 0.527203 21.4474 0.532337 21.4305 0.542073C20.6124 0.972793 19.7451 1.30268 18.8476 1.52453C18.8169 1.53329 18.7845 1.53349 18.7538 1.52511C18.723 1.51673 18.6952 1.50009 18.6732 1.47699C18.6007 1.40337 18.5211 1.33703 18.4356 1.27892C18.0664 0.949453 17.6463 0.681893 17.1916 0.486605C16.5833 0.242762 15.9284 0.137204 15.2742 0.177593C14.6388 0.224962 14.0196 0.401112 13.4543 0.695322C12.889 0.989532 12.3895 1.39565 11.9861 1.88899C11.5721 2.40554 11.2748 3.00559 11.1146 3.64792C10.9772 4.2568 10.9611 4.88679 11.0671 5.50192C11.0671 5.60492 11.0671 5.61285 10.9799 5.60493C7.43828 5.07408 4.49881 3.8064 2.11395 1.08877C2.01095 0.969923 1.9555 0.969923 1.87627 1.08877C0.830421 2.67339 1.3375 5.16916 2.66858 6.40517C2.84289 6.56363 3.02512 6.73002 3.21528 6.88056C2.61908 6.83632 2.03748 6.67477 1.50388 6.40517C1.40088 6.33386 1.35335 6.40516 1.33751 6.49231C1.32224 6.66099 1.32224 6.83072 1.33751 6.9994C1.4414 7.79651 1.75506 8.55173 2.24646 9.1879C2.73785 9.82407 3.38935 10.3184 4.13436 10.6203C4.31684 10.701 4.50837 10.7596 4.70483 10.7946C4.15139 10.9019 3.58441 10.9206 3.02511 10.85C2.90626 10.85 2.85873 10.85 2.90627 11.0006C3.19303 11.7522 3.66772 12.4179 4.28497 12.9338C4.90223 13.4498 5.64145 13.799 6.43206 13.948C6.59052 13.948 6.74899 13.948 6.90745 14.0193C6.51129 14.6214 5.1406 15.073 4.53052 15.2949C3.36232 15.718 2.11504 15.8776 0.877952 15.7624C0.679874 15.7624 0.640262 15.7624 0.5848 15.7624C0.529339 15.7624 0.584806 15.8416 0.640268 15.8971C0.893807 16.0634 1.14735 16.206 1.43258 16.3487C2.21001 16.7633 3.03113 17.0901 3.88082 17.3232C8.27022 18.5354 13.2142 17.648 16.5103 14.3679C19.1011 11.8008 20.0043 8.25126 20.0043 4.7017C20.0043 4.55909 20.1707 4.48778 20.2658 4.40855C20.9225 3.90109 21.5018 3.30054 21.9851 2.62585C22.0612 2.52543 22.1028 2.40319 22.104 2.27724C22.0168 2.24554 22.0089 2.26139 21.9217 2.301Z" fill="white"/>
</svg>
