<svg width="25" height="18" viewBox="0 0 25 18" fill="none" xmlns="http://www.w3.org/2000/svg">
<path d="M24.4103 5.45389C24.4103 4.0523 23.8535 2.70811 22.8624 1.71703C21.8713 0.725958 20.5271 0.169189 19.1255 0.169189H5.60082C4.1985 0.169188 2.8535 0.725702 1.86116 1.71655C0.868827 2.7074 0.310266 4.05157 0.308167 5.45389V11.7528C0.310266 13.1551 0.868827 14.4993 1.86116 15.4901C2.8535 16.481 4.1985 17.0375 5.60082 17.0375H19.1255C20.5271 17.0375 21.8713 16.4807 22.8624 15.4896C23.8535 14.4985 24.4103 13.1544 24.4103 11.7528V5.45389ZM16.4872 9.07475L10.426 12.0776C10.1883 12.2044 9.38013 12.0301 9.38013 11.7607V5.60443C9.38013 5.32712 10.1724 5.1528 10.4339 5.29542L16.2336 8.46466C16.4475 8.59143 16.7011 8.94006 16.4555 9.07475H16.4872Z" fill="white"/>
</svg>
